<?xml version="1.0" standalone="no"?>
<!DOCTYPE svg PUBLIC "-//W3C//DTD SVG 20010904//EN"
 "http://www.w3.org/TR/2001/REC-SVG-20010904/DTD/svg10.dtd">
<svg version="1.0" xmlns="http://www.w3.org/2000/svg"
 width="91.000000pt" height="73.000000pt" viewBox="0 0 91.000000 73.000000"
 preserveAspectRatio="xMidYMid meet">

<g transform="translate(0.000000,73.000000) scale(0.100000,-0.100000)"
fill="#000000" stroke="none">
<path d="M85 608 c-3 -13 -23 -96 -44 -186 l-38 -163 50 3 c58 3 76 25 25 30
l-34 3 36 150 35 150 34 5 c57 8 51 30 -8 30 -44 0 -51 -3 -56 -22z"/>
<path d="M797 623 c-15 -14 -5 -23 26 -23 l34 0 -37 -152 -36 -153 -34 -5
c-56 -8 -49 -30 9 -30 44 0 51 3 56 22 3 13 21 90 40 171 19 81 35 154 35 162
0 11 -12 15 -43 15 -24 0 -47 -3 -50 -7z"/>
<path d="M302 604 c-56 -29 -86 -77 -90 -148 -3 -51 0 -66 17 -88 25 -31 67
-42 127 -33 45 6 74 26 74 50 0 10 -9 8 -37 -6 -84 -43 -143 -14 -143 69 0 53
25 101 65 128 30 20 97 14 125 -11 16 -15 18 -14 23 4 7 29 -17 44 -76 48 -35
3 -63 -2 -85 -13z"/>
<path d="M521 573 c-34 -138 -54 -233 -48 -239 14 -14 35 7 42 43 6 35 29 73
45 73 3 0 25 -27 48 -60 28 -40 50 -60 63 -60 23 0 23 1 -37 86 l-43 61 77 64
c65 55 73 64 54 67 -17 3 -45 -16 -102 -68 -44 -40 -80 -66 -80 -59 0 8 6 40
14 72 13 53 12 57 -5 57 -13 0 -21 -11 -28 -37z"/>
</g>
</svg>
