<svg width="172" height="48" viewBox="0 0 172 48" fill="none" xmlns="http://www.w3.org/2000/svg">
<rect x="0.5" y="0.5" width="171" height="47" rx="23.5" stroke="white"/>
<path d="M29.742 30.216C28.746 30.216 27.888 29.967 27.168 29.469C26.448 28.965 25.893 28.269 25.503 27.381C25.113 26.487 24.918 25.452 24.918 24.276C24.918 23.022 25.128 21.966 25.548 21.108C25.974 20.25 26.55 19.602 27.276 19.164C28.008 18.72 28.83 18.498 29.742 18.498C30.948 18.498 31.917 18.801 32.649 19.407C33.387 20.007 33.894 20.79 34.17 21.756L32.658 22.062C32.424 21.36 32.049 20.802 31.533 20.388C31.023 19.968 30.426 19.758 29.742 19.758C29.148 19.758 28.599 19.929 28.095 20.271C27.597 20.607 27.195 21.111 26.889 21.783C26.583 22.455 26.43 23.286 26.43 24.276C26.43 25.176 26.55 25.977 26.79 26.679C27.036 27.381 27.402 27.933 27.888 28.335C28.38 28.737 28.998 28.938 29.742 28.938C30.636 28.938 31.344 28.698 31.866 28.218C32.394 27.738 32.658 27.108 32.658 26.328H34.188C34.188 27.138 34.002 27.834 33.63 28.416C33.258 28.992 32.736 29.436 32.064 29.748C31.398 30.06 30.624 30.216 29.742 30.216ZM42.9771 30V24.942C42.9771 24.12 42.7791 23.496 42.3831 23.07C41.9931 22.638 41.4591 22.422 40.7811 22.422C40.2651 22.422 39.8181 22.563 39.4401 22.845C39.0621 23.127 38.7711 23.532 38.5671 24.06C38.3631 24.582 38.2611 25.206 38.2611 25.932H37.7211C37.7211 24.93 37.8531 24.075 38.1171 23.367C38.3811 22.659 38.7651 22.119 39.2691 21.747C39.7791 21.369 40.3971 21.18 41.1231 21.18C41.8011 21.18 42.3801 21.333 42.8601 21.639C43.3461 21.939 43.7181 22.371 43.9761 22.935C44.2341 23.499 44.3631 24.168 44.3631 24.942V30H42.9771ZM36.8571 30V17.724L38.2611 17.724V30H36.8571ZM50.7083 30.216C49.9643 30.216 49.2983 30.027 48.7103 29.649C48.1283 29.265 47.6663 28.734 47.3243 28.056C46.9883 27.378 46.8203 26.598 46.8203 25.716C46.8203 24.774 46.9883 23.964 47.3243 23.286C47.6603 22.608 48.1193 22.089 48.7013 21.729C49.2893 21.363 49.9583 21.18 50.7083 21.18C51.3623 21.18 51.9203 21.312 52.3823 21.576C52.8443 21.84 53.2163 22.197 53.4983 22.647C53.7803 23.097 53.9753 23.607 54.0833 24.177C54.1973 24.741 54.2303 25.326 54.1823 25.932L47.9543 25.932V25.068L53.2553 25.068L52.8413 25.338C52.8593 24.984 52.8383 24.63 52.7783 24.276C52.7243 23.922 52.6193 23.598 52.4633 23.304C52.3073 23.004 52.0883 22.764 51.8063 22.584C51.5243 22.404 51.1643 22.314 50.7263 22.314C50.1743 22.314 49.7123 22.455 49.3403 22.737C48.9683 23.019 48.6893 23.391 48.5033 23.853C48.3173 24.309 48.2243 24.804 48.2243 25.338V25.914C48.2243 26.514 48.3143 27.051 48.4943 27.525C48.6803 27.999 48.9563 28.374 49.3223 28.65C49.6883 28.926 50.1503 29.064 50.7083 29.064C51.2663 29.064 51.7253 28.929 52.0853 28.659C52.4453 28.389 52.6643 27.99 52.7423 27.462H54.2003C54.1103 28.032 53.9063 28.524 53.5883 28.938C53.2703 29.346 52.8653 29.661 52.3733 29.883C51.8813 30.105 51.3263 30.216 50.7083 30.216ZM59.9904 30.216C59.3004 30.216 58.6554 30.03 58.0554 29.658C57.4614 29.286 56.9814 28.761 56.6154 28.083C56.2494 27.405 56.0664 26.604 56.0664 25.68C56.0664 24.732 56.2494 23.922 56.6154 23.25C56.9814 22.578 57.4614 22.065 58.0554 21.711C58.6554 21.357 59.3004 21.18 59.9904 21.18C60.4764 21.18 60.9114 21.255 61.2954 21.405C61.6854 21.549 62.0244 21.75 62.3124 22.008C62.6004 22.266 62.8374 22.56 63.0234 22.89C63.2154 23.214 63.3564 23.556 63.4464 23.916L62.0064 24.042C61.8564 23.544 61.6044 23.151 61.2504 22.863C60.9024 22.569 60.4764 22.422 59.9724 22.422C59.5464 22.422 59.1444 22.545 58.7664 22.791C58.3944 23.031 58.0914 23.394 57.8574 23.88C57.6234 24.36 57.5064 24.96 57.5064 25.68C57.5064 26.346 57.6114 26.925 57.8214 27.417C58.0374 27.903 58.3314 28.281 58.7034 28.551C59.0754 28.821 59.4984 28.956 59.9724 28.956C60.6384 28.956 61.1424 28.794 61.4844 28.47C61.8324 28.14 62.0064 27.684 62.0064 27.102H63.4464C63.4464 27.702 63.3054 28.236 63.0234 28.704C62.7414 29.172 62.3394 29.541 61.8174 29.811C61.3014 30.081 60.6924 30.216 59.9904 30.216ZM66.2477 30V17.724H67.6517V30H66.2477ZM67.4357 25.068L71.8277 21.396H73.7897L67.4357 26.562V25.068ZM72.2597 30L68.1737 24.564L69.5957 24.312L73.9877 30H72.2597ZM92.7578 30V24.942C92.7578 24.12 92.5598 23.496 92.1638 23.07C91.7738 22.638 91.2458 22.422 90.5798 22.422C89.7998 22.422 89.2028 22.725 88.7888 23.331C88.3748 23.931 88.1678 24.762 88.1678 25.824H87.5198C87.5198 25.05 87.5948 24.372 87.7448 23.79C87.9008 23.208 88.1258 22.725 88.4198 22.341C88.7138 21.951 89.0708 21.66 89.4908 21.468C89.9108 21.276 90.3878 21.18 90.9218 21.18C91.5998 21.18 92.1788 21.333 92.6588 21.639C93.1448 21.939 93.5168 22.371 93.7748 22.935C94.0328 23.499 94.1618 24.168 94.1618 24.942V30H92.7578ZM80.6618 30V21.396H81.8678L82.0298 23.124C82.2998 22.5 82.6778 22.02 83.1638 21.684C83.6558 21.348 84.2438 21.18 84.9278 21.18C85.6058 21.18 86.1848 21.333 86.6648 21.639C87.1508 21.939 87.5228 22.371 87.7808 22.935C88.0388 23.499 88.1678 24.168 88.1678 24.942V30H86.7818V24.942C86.7818 24.12 86.5838 23.496 86.1878 23.07C85.7978 22.638 85.2638 22.422 84.5858 22.422C84.0698 22.422 83.6228 22.563 83.2448 22.845C82.8668 23.127 82.5758 23.532 82.3718 24.06C82.1678 24.582 82.0658 25.206 82.0658 25.932V30H80.6618ZM96.0796 21.396H97.6456L100.454 28.776H100.13L102.308 21.396H103.748L100.508 31.728C100.238 32.592 99.8776 33.258 99.4276 33.726C98.9776 34.194 98.4016 34.428 97.6996 34.428C97.3216 34.428 96.9616 34.374 96.6196 34.266C96.2836 34.158 95.9356 34.002 95.5756 33.798V32.502C95.8936 32.754 96.1996 32.934 96.4936 33.042C96.7936 33.15 97.1056 33.204 97.4296 33.204C97.7896 33.204 98.0896 33.09 98.3296 32.862C98.5756 32.634 98.7796 32.34 98.9416 31.98C99.1036 31.626 99.2416 31.254 99.3556 30.864L99.6076 30L96.0796 21.396ZM108.664 21.396H110.122L112.318 28.578H112.138L114.28 21.81H115.45L117.574 28.596H117.412L119.608 21.396H121.012L118.186 30H116.818L114.73 23.646H114.946L112.876 30H111.508L108.664 21.396ZM126.315 30.216C125.541 30.216 124.851 30.045 124.245 29.703C123.645 29.361 123.171 28.854 122.823 28.182C122.475 27.51 122.301 26.682 122.301 25.698C122.301 24.708 122.475 23.88 122.823 23.214C123.171 22.542 123.645 22.035 124.245 21.693C124.851 21.351 125.541 21.18 126.315 21.18C127.083 21.18 127.767 21.351 128.367 21.693C128.973 22.035 129.447 22.542 129.789 23.214C130.137 23.88 130.311 24.708 130.311 25.698C130.311 26.682 130.137 27.51 129.789 28.182C129.447 28.854 128.973 29.361 128.367 29.703C127.767 30.045 127.083 30.216 126.315 30.216ZM126.279 28.992C126.837 28.992 127.311 28.86 127.701 28.596C128.091 28.326 128.385 27.945 128.583 27.453C128.787 26.961 128.889 26.376 128.889 25.698C128.889 24.672 128.676 23.865 128.25 23.277C127.824 22.683 127.191 22.386 126.351 22.386C125.787 22.386 125.31 22.521 124.92 22.791C124.536 23.055 124.242 23.436 124.038 23.934C123.84 24.426 123.741 25.014 123.741 25.698C123.741 26.712 123.954 27.516 124.38 28.11C124.812 28.698 125.445 28.992 126.279 28.992ZM133.045 30V21.378H134.449V30H133.045ZM134.017 26.112C134.017 25.02 134.122 24.114 134.332 23.394C134.542 22.668 134.848 22.128 135.25 21.774C135.658 21.414 136.153 21.234 136.735 21.234C136.927 21.234 137.101 21.249 137.257 21.279C137.419 21.303 137.581 21.342 137.743 21.396L137.653 22.782C137.485 22.728 137.302 22.683 137.104 22.647C136.906 22.605 136.729 22.584 136.573 22.584C136.063 22.584 135.652 22.731 135.34 23.025C135.028 23.313 134.8 23.721 134.656 24.249C134.518 24.777 134.449 25.398 134.449 26.112H134.017ZM139.548 30V17.724H140.952V30H139.548ZM140.736 25.068L145.128 21.396H147.09L140.736 26.562V25.068ZM145.56 30L141.474 24.564L142.896 24.312L147.288 30H145.56Z" fill="white"/>
</svg>
