<svg width="143" height="48" viewBox="0 0 143 48" fill="none" xmlns="http://www.w3.org/2000/svg">
<rect x="0.5" y="0.5" width="142" height="47" rx="23.5" stroke="white"/>
<path d="M29.742 30.216C28.746 30.216 27.888 29.967 27.168 29.469C26.448 28.965 25.893 28.269 25.503 27.381C25.113 26.487 24.918 25.452 24.918 24.276C24.918 23.022 25.128 21.966 25.548 21.108C25.974 20.25 26.55 19.602 27.276 19.164C28.008 18.72 28.83 18.498 29.742 18.498C30.948 18.498 31.917 18.801 32.649 19.407C33.387 20.007 33.894 20.79 34.17 21.756L32.658 22.062C32.424 21.36 32.049 20.802 31.533 20.388C31.023 19.968 30.426 19.758 29.742 19.758C29.148 19.758 28.599 19.929 28.095 20.271C27.597 20.607 27.195 21.111 26.889 21.783C26.583 22.455 26.43 23.286 26.43 24.276C26.43 25.176 26.55 25.977 26.79 26.679C27.036 27.381 27.402 27.933 27.888 28.335C28.38 28.737 28.998 28.938 29.742 28.938C30.636 28.938 31.344 28.698 31.866 28.218C32.394 27.738 32.658 27.108 32.658 26.328H34.188C34.188 27.138 34.002 27.834 33.63 28.416C33.258 28.992 32.736 29.436 32.064 29.748C31.398 30.06 30.624 30.216 29.742 30.216ZM39.9711 30.216C39.1971 30.216 38.5071 30.045 37.9011 29.703C37.3011 29.361 36.8271 28.854 36.4791 28.182C36.1311 27.51 35.9571 26.682 35.9571 25.698C35.9571 24.708 36.1311 23.88 36.4791 23.214C36.8271 22.542 37.3011 22.035 37.9011 21.693C38.5071 21.351 39.1971 21.18 39.9711 21.18C40.7391 21.18 41.4231 21.351 42.0231 21.693C42.6291 22.035 43.1031 22.542 43.4451 23.214C43.7931 23.88 43.9671 24.708 43.9671 25.698C43.9671 26.682 43.7931 27.51 43.4451 28.182C43.1031 28.854 42.6291 29.361 42.0231 29.703C41.4231 30.045 40.7391 30.216 39.9711 30.216ZM39.9351 28.992C40.4931 28.992 40.9671 28.86 41.3571 28.596C41.7471 28.326 42.0411 27.945 42.2391 27.453C42.4431 26.961 42.5451 26.376 42.5451 25.698C42.5451 24.672 42.3321 23.865 41.9061 23.277C41.4801 22.683 40.8471 22.386 40.0071 22.386C39.4431 22.386 38.9661 22.521 38.5761 22.791C38.1921 23.055 37.8981 23.436 37.6941 23.934C37.4961 24.426 37.3971 25.014 37.3971 25.698C37.3971 26.712 37.6101 27.516 38.0361 28.11C38.4681 28.698 39.1011 28.992 39.9351 28.992ZM52.8208 30V24.942C52.8208 24.12 52.6228 23.496 52.2268 23.07C51.8368 22.638 51.3028 22.422 50.6248 22.422C50.1088 22.422 49.6618 22.563 49.2838 22.845C48.9058 23.127 48.6148 23.532 48.4108 24.06C48.2068 24.582 48.1048 25.206 48.1048 25.932H47.5648C47.5648 24.93 47.6968 24.075 47.9608 23.367C48.2248 22.659 48.6088 22.119 49.1128 21.747C49.6228 21.369 50.2408 21.18 50.9668 21.18C51.6448 21.18 52.2238 21.333 52.7038 21.639C53.1898 21.939 53.5618 22.371 53.8198 22.935C54.0778 23.499 54.2068 24.168 54.2068 24.942V30H52.8208ZM46.7008 30V21.396H47.9068L48.1048 23.376V30H46.7008ZM60.2101 30.216C59.7421 30.216 59.3221 30.126 58.9501 29.946C58.5781 29.766 58.2841 29.496 58.0681 29.136C57.8521 28.776 57.7441 28.326 57.7441 27.786V19.002H59.1301V27.75C59.1301 28.638 59.5441 29.082 60.3721 29.082C60.6181 29.082 60.8551 29.055 61.0831 29.001C61.3171 28.947 61.5781 28.866 61.8661 28.758L62.0641 29.766C61.7581 29.898 61.4521 30.006 61.1461 30.09C60.8461 30.174 60.5341 30.216 60.2101 30.216ZM56.3581 22.368V21.396H61.8481V22.368H56.3581ZM69.6597 30L69.4797 28.11V24.42C69.4797 23.646 69.3147 23.091 68.9847 22.755C68.6547 22.413 68.1597 22.242 67.4997 22.242C67.1277 22.242 66.7887 22.296 66.4827 22.404C66.1827 22.512 65.9427 22.68 65.7627 22.908C65.5887 23.13 65.5017 23.418 65.5017 23.772H63.9357C63.9357 23.148 64.0887 22.647 64.3947 22.269C64.7007 21.885 65.1207 21.609 65.6547 21.441C66.1947 21.267 66.8097 21.18 67.4997 21.18C68.1597 21.18 68.7447 21.291 69.2547 21.513C69.7647 21.735 70.1637 22.089 70.4517 22.575C70.7397 23.055 70.8837 23.682 70.8837 24.456V30H69.6597ZM66.7257 30.216C66.0177 30.216 65.4327 30.09 64.9707 29.838C64.5087 29.586 64.1637 29.259 63.9357 28.857C63.7077 28.455 63.5937 28.032 63.5937 27.588C63.5937 27.006 63.7377 26.532 64.0257 26.166C64.3197 25.8 64.7187 25.533 65.2227 25.365C65.7267 25.191 66.2937 25.104 66.9237 25.104C67.3737 25.104 67.8237 25.149 68.2737 25.239C68.7297 25.329 69.1737 25.452 69.6057 25.608V26.49C69.2457 26.346 68.8377 26.232 68.3817 26.148C67.9317 26.064 67.5177 26.022 67.1397 26.022C66.5637 26.022 66.0777 26.142 65.6817 26.382C65.2857 26.616 65.0877 27.018 65.0877 27.588C65.0877 28.008 65.2377 28.368 65.5377 28.668C65.8437 28.968 66.3297 29.118 66.9957 29.118C67.4637 29.118 67.8837 29.01 68.2557 28.794C68.6337 28.572 68.9307 28.296 69.1467 27.966C69.3687 27.636 69.4797 27.306 69.4797 26.976H69.8217C69.8217 27.552 69.6957 28.086 69.4437 28.578C69.1977 29.07 68.8437 29.466 68.3817 29.766C67.9197 30.066 67.3677 30.216 66.7257 30.216ZM77.2697 30.216C76.5797 30.216 75.9347 30.03 75.3347 29.658C74.7407 29.286 74.2607 28.761 73.8947 28.083C73.5287 27.405 73.3457 26.604 73.3457 25.68C73.3457 24.732 73.5287 23.922 73.8947 23.25C74.2607 22.578 74.7407 22.065 75.3347 21.711C75.9347 21.357 76.5797 21.18 77.2697 21.18C77.7557 21.18 78.1907 21.255 78.5747 21.405C78.9647 21.549 79.3037 21.75 79.5917 22.008C79.8797 22.266 80.1167 22.56 80.3027 22.89C80.4947 23.214 80.6357 23.556 80.7257 23.916L79.2857 24.042C79.1357 23.544 78.8837 23.151 78.5297 22.863C78.1817 22.569 77.7557 22.422 77.2517 22.422C76.8257 22.422 76.4237 22.545 76.0457 22.791C75.6737 23.031 75.3707 23.394 75.1367 23.88C74.9027 24.36 74.7857 24.96 74.7857 25.68C74.7857 26.346 74.8907 26.925 75.1007 27.417C75.3167 27.903 75.6107 28.281 75.9827 28.551C76.3547 28.821 76.7777 28.956 77.2517 28.956C77.9177 28.956 78.4217 28.794 78.7637 28.47C79.1117 28.14 79.2857 27.684 79.2857 27.102H80.7257C80.7257 27.702 80.5847 28.236 80.3027 28.704C80.0207 29.172 79.6187 29.541 79.0967 29.811C78.5807 30.081 77.9717 30.216 77.2697 30.216ZM86.173 30.216C85.705 30.216 85.285 30.126 84.913 29.946C84.541 29.766 84.247 29.496 84.031 29.136C83.815 28.776 83.707 28.326 83.707 27.786V19.002H85.093V27.75C85.093 28.638 85.507 29.082 86.335 29.082C86.581 29.082 86.818 29.055 87.046 29.001C87.28 28.947 87.541 28.866 87.829 28.758L88.027 29.766C87.721 29.898 87.415 30.006 87.109 30.09C86.809 30.174 86.497 30.216 86.173 30.216ZM82.321 22.368V21.396L87.811 21.396V22.368L82.321 22.368ZM106.662 30V24.942C106.662 24.12 106.464 23.496 106.068 23.07C105.678 22.638 105.15 22.422 104.484 22.422C103.704 22.422 103.107 22.725 102.693 23.331C102.279 23.931 102.072 24.762 102.072 25.824H101.424C101.424 25.05 101.499 24.372 101.649 23.79C101.805 23.208 102.03 22.725 102.324 22.341C102.618 21.951 102.975 21.66 103.395 21.468C103.815 21.276 104.292 21.18 104.826 21.18C105.504 21.18 106.083 21.333 106.563 21.639C107.049 21.939 107.421 22.371 107.679 22.935C107.937 23.499 108.066 24.168 108.066 24.942V30H106.662ZM94.566 30V21.396H95.772L95.934 23.124C96.204 22.5 96.582 22.02 97.068 21.684C97.56 21.348 98.148 21.18 98.832 21.18C99.51 21.18 100.089 21.333 100.569 21.639C101.055 21.939 101.427 22.371 101.685 22.935C101.943 23.499 102.072 24.168 102.072 24.942V30L100.686 30V24.942C100.686 24.12 100.488 23.496 100.092 23.07C99.702 22.638 99.168 22.422 98.49 22.422C97.974 22.422 97.527 22.563 97.149 22.845C96.771 23.127 96.48 23.532 96.276 24.06C96.072 24.582 95.97 25.206 95.97 25.932V30H94.566ZM114.394 30.216C113.65 30.216 112.984 30.027 112.396 29.649C111.814 29.265 111.352 28.734 111.01 28.056C110.674 27.378 110.506 26.598 110.506 25.716C110.506 24.774 110.674 23.964 111.01 23.286C111.346 22.608 111.805 22.089 112.387 21.729C112.975 21.363 113.644 21.18 114.394 21.18C115.048 21.18 115.606 21.312 116.068 21.576C116.53 21.84 116.902 22.197 117.184 22.647C117.466 23.097 117.661 23.607 117.769 24.177C117.883 24.741 117.916 25.326 117.868 25.932H111.64V25.068H116.941L116.527 25.338C116.545 24.984 116.524 24.63 116.464 24.276C116.41 23.922 116.305 23.598 116.149 23.304C115.993 23.004 115.774 22.764 115.492 22.584C115.21 22.404 114.85 22.314 114.412 22.314C113.86 22.314 113.398 22.455 113.026 22.737C112.654 23.019 112.375 23.391 112.189 23.853C112.003 24.309 111.91 24.804 111.91 25.338V25.914C111.91 26.514 112 27.051 112.18 27.525C112.366 27.999 112.642 28.374 113.008 28.65C113.374 28.926 113.836 29.064 114.394 29.064C114.952 29.064 115.411 28.929 115.771 28.659C116.131 28.389 116.35 27.99 116.428 27.462H117.886C117.796 28.032 117.592 28.524 117.274 28.938C116.956 29.346 116.551 29.661 116.059 29.883C115.567 30.105 115.012 30.216 114.394 30.216Z" fill="white"/>
</svg>
